# xmcd
#
# Track frame offsets:
#	150
#	17957
#	33745
#	51303
#	70489
#	87748
#	106323
#	123289
#	142818
#	160625
#	176413
#	193971
#	213157
#	230416
#	248991
#	265957
#
# Disc length: 3806 seconds
#
# Revision: 2
# Processed by: cddbd v1.5.1PL0 Copyright (c) Steve Scherf et al.
# Submitted via: audiograbber 1.83.01
#
DISCID=e90edc10
DTITLE=Karaoke Party - KP5489
DYEAR=2003
DGENRE=Karaoke Country
TTITLE0=Faith Hill - Cry
TTITLE1=Kenny Chesney - The Good Stuff
TTITLE2=Diamond Rio - Beautiful Mess
TTITLE3=Tim Mcgraw - Red Rag Top
TTITLE4=Dixie Chicks - Long Time Gone
TTITLE5=Sara Evans - I Keep Looking
TTITLE6=Rascal Flats - These Days
TTITLE7=Montgomery Gentry - My Town
TTITLE8=Faith Hill - Cry
TTITLE9=Kenny Chesney - The Good Stuff
TTITLE10=Diamond Rio - Beautiful Mess
TTITLE11=Tim Mcgraw - Red Rag Top
TTITLE12=Dixie Chicks - Long Time Gone
TTITLE13=Sara Evans - I Keep Looking
TTITLE14=Rascal Flats - These Days
TTITLE15=Montgomery Gentry - My Town
EXTD=Tracks 9-16 Include Demo Vocal
EXTT0=
EXTT1=
EXTT2=
EXTT3=
EXTT4=
EXTT5=
EXTT6=
EXTT7=
EXTT8=
EXTT9=
EXTT10=
EXTT11=
EXTT12=
EXTT13=
EXTT14=
EXTT15=
PLAYORDER=
